<svg width="47" height="36" viewBox="0 0 47 36" fill="none" xmlns="http://www.w3.org/2000/svg">
<rect width="46.2585" height="36" rx="8" fill="#31AB5C"/>
<g clip-path="url(#clip0_3113_14881)">
<path d="M35 10H15.242L15.2 9.649C15.114 8.91942 14.7634 8.24673 14.2145 7.75848C13.6656 7.27022 12.9566 7.00034 12.222 7H11V9H12.222C12.4669 9.00003 12.7033 9.08996 12.8864 9.25272C13.0694 9.41547 13.1863 9.63975 13.215 9.883L14.8 23.351C14.886 24.0806 15.2366 24.7533 15.7855 25.2415C16.3344 25.7298 17.0434 25.9997 17.778 26H31V24H17.778C17.5329 23.9999 17.2964 23.9099 17.1133 23.7469C16.9303 23.5839 16.8134 23.3594 16.785 23.116L16.654 22H32.836L35 10ZM31.164 20H16.419L15.478 12H32.607L31.164 20Z" fill="#FAF7F5"/>
<path d="M18 31.0005C19.1046 31.0005 20 30.1051 20 29.0005C20 27.8959 19.1046 27.0005 18 27.0005C16.8954 27.0005 16 27.8959 16 29.0005C16 30.1051 16.8954 31.0005 18 31.0005Z" fill="#FAF7F5"/>
<path d="M28 31.0005C29.1046 31.0005 30 30.1051 30 29.0005C30 27.8959 29.1046 27.0005 28 27.0005C26.8954 27.0005 26 27.8959 26 29.0005C26 30.1051 26.8954 31.0005 28 31.0005Z" fill="#FAF7F5"/>
</g>
<defs>
<clipPath id="clip0_3113_14881">
<rect width="24" height="24" fill="white" transform="translate(11 7)"/>
</clipPath>
</defs>
</svg>
