<svg xmlns="http://www.w3.org/2000/svg" width="195" height="195" viewBox="0 0 195 195" fill="none">
  <g clip-path="url(#clip0_3113_15106)">
    <path d="M53.7453 4.67188H38V20.5902L53.7453 4.67188Z" fill="#31AB5C"/>
    <path d="M-7.5 31.8367L24.3367 0H-7.5V31.8367Z" fill="#31AB5C"/>
    <path d="M94.5902 4.67188H78.6719V20.5902L94.5902 4.67188Z" fill="#31AB5C"/>
    <path d="M135.418 4.67188H119.5V20.5902L135.418 4.67188Z" fill="#31AB5C"/>
    <path d="M176.254 4.67188H160.336V20.5902L176.254 4.67188Z" fill="#31AB5C"/>
    <path d="M33.3359 72.6707L65.1727 40.834H33.3359V72.6707Z" fill="#31AB5C"/>
    <path d="M-7.5 72.6707L24.3367 40.834H-7.5V72.6707Z" fill="#31AB5C"/>
    <path d="M74 72.6707L105.837 40.834H74V72.6707Z" fill="#31AB5C"/>
    <path d="M135.418 45.5059H119.5V61.2512L135.418 45.5059Z" fill="#31AB5C"/>
    <path d="M155.664 72.6707L187.501 40.834H155.664V72.6707Z" fill="#31AB5C"/>
    <path d="M33.3359 113.332L65.1727 81.4951H33.3359V113.332Z" fill="#31AB5C"/>
    <path d="M-7.5 113.332L24.3367 81.4951H-7.5V113.332Z" fill="#31AB5C"/>
    <path d="M94.5902 86.167H78.6719V102.085L94.5902 86.167Z" fill="#31AB5C"/>
    <path d="M114.828 113.332L146.665 81.4951H114.828V113.332Z" fill="#31AB5C"/>
    <path d="M155.664 113.332L187.501 81.4951H155.664V113.332Z" fill="#31AB5C"/>
    <path d="M53.7453 127.001H38V142.919L53.7453 127.001Z" fill="#31AB5C"/>
    <path d="M-7.5 154.166L24.3367 122.329H-7.5V154.166Z" fill="#31AB5C"/>
    <path d="M74 154.166L105.837 122.329H74V154.166Z" fill="#31AB5C"/>
    <path d="M114.828 154.166L146.665 122.329H114.828V154.166Z" fill="#31AB5C"/>
    <path d="M155.664 154.166L187.501 122.329H155.664V154.166Z" fill="#31AB5C"/>
    <path d="M53.7453 167.835H38V183.753L53.7453 167.835Z" fill="#31AB5C"/>
    <path d="M13.0902 167.835H-2.82812V183.753L13.0902 167.835Z" fill="#31AB5C"/>
    <path d="M94.5902 167.835H78.6719V183.753L94.5902 167.835Z" fill="#31AB5C"/>
    <path d="M135.418 167.835H119.5V183.753L135.418 167.835Z" fill="#31AB5C"/>
    <path d="M155.664 195L187.501 163.163H155.664V195Z" fill="#31AB5C"/>
  </g>
  <defs>
    <clipPath id="clip0_3113_15106">
      <rect width="195" height="195" fill="white"/>
    </clipPath>
  </defs>
</svg>