<svg width="24" height="24" viewBox="0 0 24 24" fill="none" xmlns="http://www.w3.org/2000/svg">
<path d="M14.2874 12.71C14.1936 12.6171 14.1192 12.5065 14.0685 12.3846C14.0177 12.2627 13.9916 12.132 13.9916 12C13.9916 11.868 14.0177 11.7373 14.0685 11.6154C14.1192 11.4936 14.1936 11.383 14.2874 11.29L18.8774 6.71001C18.9711 6.61705 19.0455 6.50645 19.0963 6.38459C19.147 6.26273 19.1732 6.13203 19.1732 6.00001C19.1732 5.868 19.147 5.7373 19.0963 5.61544C19.0455 5.49358 18.9711 5.38298 18.8774 5.29001C18.69 5.10376 18.4365 4.99922 18.1724 4.99922C17.9082 4.99922 17.6547 5.10376 17.4674 5.29001L12.8774 9.88001C12.3156 10.4425 12 11.205 12 12C12 12.795 12.3156 13.5575 12.8774 14.12L17.4674 18.71C17.6536 18.8948 17.905 18.9989 18.1674 19C18.299 19.0008 18.4294 18.9756 18.5513 18.9258C18.6731 18.876 18.7839 18.8027 18.8774 18.71C18.9711 18.6171 19.0455 18.5065 19.0963 18.3846C19.147 18.2627 19.1732 18.132 19.1732 18C19.1732 17.868 19.147 17.7373 19.0963 17.6154C19.0455 17.4936 18.9711 17.383 18.8774 17.29L14.2874 12.71Z" fill="#374957"/>
</svg>
