<svg width="35" height="35" viewBox="0 0 35 35" fill="none" xmlns="http://www.w3.org/2000/svg">
<g id="Group">
<g id="Group_2">
<g id="Group_3">
<path id="Vector" d="M17.5008 34.2907C26.7736 34.2907 34.2907 26.7736 34.2907 17.5008C34.2907 8.22801 26.7736 0.710938 17.5008 0.710938C8.22801 0.710938 0.710938 8.22801 0.710938 17.5008C0.710938 26.7736 8.22801 34.2907 17.5008 34.2907Z" fill="#FAF7F5"/>
</g>
<g id="Group_4">
<path id="Vector_2" d="M17.4997 35C7.85005 35 0 27.1499 0 17.5003C0 7.85075 7.85005 0 17.4997 0C27.1493 0 35 7.85075 35 17.5003C35 27.1499 27.1493 35 17.4997 35ZM17.4997 1.42022C8.63367 1.42022 1.42022 8.63367 1.42022 17.5003C1.42022 26.3663 8.63367 33.5798 17.4997 33.5798C26.3663 33.5798 33.5798 26.3663 33.5798 17.5003C33.5798 8.63367 26.3663 1.42022 17.4997 1.42022Z" fill="#31AB5C"/>
</g>
</g>
<g id="Group_5">
<g id="Group_6">
<path id="Vector_3" d="M13.86 23.678C13.6783 23.678 13.4966 23.6087 13.3579 23.47L9.09867 19.2107C8.82128 18.9333 8.82128 18.4839 9.09867 18.2066C9.37605 17.9292 9.82542 17.9292 10.1028 18.2066L13.86 21.9638L24.8938 10.9307C25.1712 10.6533 25.6205 10.6533 25.8979 10.9307C26.1753 11.2081 26.1753 11.6575 25.8979 11.9348L14.3621 23.47C14.2234 23.6087 14.0417 23.678 13.86 23.678Z" fill="#31AB5C"/>
</g>
</g>
</g>
</svg>
