<svg width="14" height="14" viewBox="0 0 14 14" fill="none" xmlns="http://www.w3.org/2000/svg">
<path id="Union" fill-rule="evenodd" clip-rule="evenodd" d="M6.34035 11.5263C6.12829 11.4337 5.93562 11.2979 5.77337 11.1267L3.9032 9.15766C3.79391 9.04253 3.73248 8.88634 3.73242 8.72351C3.73237 8.56061 3.79369 8.40435 3.9029 8.28917C4.01211 8.17399 4.16026 8.10921 4.31476 8.10915C4.46926 8.10909 4.61746 8.17374 4.72675 8.28886L6.4216 10.0743L6.42684 0.61399C6.42684 0.45115 6.48823 0.294979 6.59743 0.179833C6.70669 0.0646881 6.85481 0 7.00927 0C7.16373 0 7.3119 0.0646881 7.4211 0.179833C7.53036 0.294979 7.59169 0.45115 7.59169 0.61399L7.58762 10.086L9.2918 8.28886C9.40252 8.18289 9.5476 8.12591 9.69705 8.12959C9.84651 8.13334 9.98891 8.1975 10.0947 8.30882C10.2006 8.42013 10.2618 8.57007 10.2656 8.72768C10.2694 8.88523 10.2156 9.0383 10.1154 9.1552L8.24518 11.1267C8.08291 11.2979 7.89025 11.4337 7.67818 11.5263C7.46612 11.619 7.23886 11.6667 7.00927 11.6667C6.77973 11.6667 6.55241 11.619 6.34035 11.5263ZM13.0042 9.50424C13.1136 9.39487 13.262 9.33339 13.4167 9.33339C13.5714 9.33339 13.7198 9.39487 13.8291 9.50424C13.9385 9.61362 14 9.76202 14 9.91672V12.2501C14 12.7142 13.8156 13.1593 13.4874 13.4875C13.1592 13.8157 12.7141 14.0001 12.25 14.0001H1.75C1.28587 14.0001 0.840752 13.8157 0.512563 13.4875C0.184374 13.1593 0 12.7142 0 12.2501V9.91672C0 9.76202 0.0614582 9.61362 0.170854 9.50424C0.280251 9.39487 0.428624 9.33339 0.583333 9.33339C0.738045 9.33339 0.886416 9.39487 0.995814 9.50424C1.10521 9.61362 1.16667 9.76202 1.16667 9.91672V12.2501C1.16667 12.4048 1.22813 12.5532 1.33752 12.6625C1.44692 12.7719 1.59529 12.8334 1.75 12.8334H12.25C12.4047 12.8334 12.5531 12.7719 12.6625 12.6625C12.7718 12.5532 12.8333 12.4048 12.8333 12.2501V9.91672C12.8333 9.76202 12.8948 9.61362 13.0042 9.50424Z" fill="#31AB5C"/>
</svg>
