<svg width="35" height="35" viewBox="0 0 35 35" fill="none" xmlns="http://www.w3.org/2000/svg">
<g id="Group">
<g id="Group_2">
<g id="Group_3">
<path id="Vector" d="M17.5008 34.2887C26.7736 34.2887 34.2907 26.7716 34.2907 17.4988C34.2907 8.22606 26.7736 0.708984 17.5008 0.708984C8.22801 0.708984 0.710938 8.22606 0.710938 17.4988C0.710938 26.7716 8.22801 34.2887 17.5008 34.2887Z" fill="#FAF7F5"/>
</g>
<g id="Group_4">
<path id="Vector_2" d="M17.5003 35C7.85075 35 0 27.1499 0 17.5003C0 7.85075 7.85075 0 17.5003 0C27.1499 0 35 7.85075 35 17.5003C35 27.1499 27.1499 35 17.5003 35ZM17.5003 1.42022C8.63367 1.42022 1.42022 8.63367 1.42022 17.5003C1.42022 26.3663 8.63367 33.5798 17.5003 33.5798C26.3663 33.5798 33.5798 26.3663 33.5798 17.5003C33.5798 8.63367 26.3663 1.42022 17.5003 1.42022Z" fill="#CF0821"/>
</g>
</g>
<g id="Group_5">
<g id="Group_6">
<g id="Group_7">
<path id="Vector_3" d="M23.7792 11.2197L11.2188 23.7802L23.7792 11.2197Z" fill="#565A5F"/>
</g>
<g id="Group_8">
<path id="Vector_4" d="M11.2179 24.4901C11.0362 24.4901 10.8545 24.4207 10.7159 24.282C10.4385 24.0046 10.4385 23.5553 10.7159 23.2779L23.2766 10.7178C23.554 10.4404 24.0034 10.4404 24.2808 10.7178C24.5582 10.9952 24.5582 11.4446 24.2808 11.7219L11.72 24.282C11.5813 24.4207 11.3996 24.4901 11.2179 24.4901Z" fill="#CF0821"/>
</g>
</g>
<g id="Group_9">
<g id="Group_10">
<path id="Vector_5" d="M11.2188 11.2197L23.7792 23.7802L11.2188 11.2197Z" fill="#565A5F"/>
</g>
<g id="Group_11">
<path id="Vector_6" d="M23.7787 24.4901C23.597 24.4901 23.4153 24.4207 23.2766 24.282L10.7159 11.7219C10.4385 11.4446 10.4385 10.9952 10.7159 10.7178C10.9932 10.4404 11.4426 10.4404 11.72 10.7178L24.2808 23.2779C24.5582 23.5553 24.5582 24.0046 24.2808 24.282C24.1421 24.4207 23.9604 24.4901 23.7787 24.4901Z" fill="#CF0821"/>
</g>
</g>
</g>
</g>
</svg>
