<svg width="77" height="77" viewBox="0 0 77 77" fill="none" xmlns="http://www.w3.org/2000/svg">
<g id="Frame 39295">
<g id="Group 48095690">
<path id="Vector" d="M47.9626 42.4707L47.4401 43.8292C53.0832 46.1283 56.8452 50.6219 56.8452 55.847C56.8452 63.3711 48.9031 69.4322 39.0799 69.4322C29.3612 69.4322 21.3146 63.3711 21.3146 55.847C21.3146 50.6219 25.1812 46.0238 30.9288 43.7247L30.4063 42.3662C24.1361 44.8743 19.8516 49.9948 19.8516 55.847C19.8516 64.2071 28.4207 70.9997 39.0799 70.9997C49.6346 70.9997 58.3083 64.2071 58.3083 55.847C58.3083 50.0993 54.1282 44.9787 47.9626 42.4707Z" fill="#2FB56A"/>
<path id="Vector_2" d="M46.2905 9.97108C46.0815 9.97108 45.8725 10.0756 45.768 10.2846C45.768 10.3891 45.6635 10.3891 45.6635 10.4936C45.6635 10.5981 45.559 10.7026 45.559 10.8071C45.4545 11.0161 45.4545 11.2251 45.35 11.3296C45.2455 11.6431 45.3499 11.9566 45.6635 12.0611C45.768 12.0611 45.768 12.0611 45.8725 12.0611C46.0815 12.0611 46.2905 11.9566 46.395 11.7476C46.604 11.2251 46.813 10.8071 46.9175 10.3891C47.022 10.0756 46.9175 9.76207 46.604 9.65757C46.395 9.97107 46.2905 9.97108 46.2905 9.97108ZM45.1409 12.6881C44.9319 12.6881 44.7229 12.7926 44.6184 13.0016V13.1061C44.4094 13.5241 44.3049 13.9421 44.0959 14.3602C43.9914 14.6737 44.0959 14.9872 44.4094 15.0917C44.5139 15.0917 44.5139 15.0917 44.6184 15.0917C44.8274 15.0917 45.0364 14.9872 45.1409 14.6737C45.3499 14.1512 45.4545 13.7331 45.6635 13.3151C45.768 13.0016 45.6635 12.6881 45.35 12.5836C45.2455 12.6881 45.1409 12.6881 45.1409 12.6881ZM44.0959 15.5097C43.8869 15.5097 43.6779 15.6142 43.5734 15.9277C43.5734 16.0322 43.4689 16.2412 43.4689 16.3457C43.3644 16.6592 43.2599 16.9727 43.1554 17.2862C43.0509 17.5997 43.2599 17.9132 43.4689 18.0177C43.5734 18.0177 43.5734 18.0177 43.6779 18.0177C43.8869 18.0177 44.0959 17.9132 44.2004 17.5997C44.4094 17.0772 44.5139 16.6592 44.7229 16.2412C44.8274 15.9277 44.7229 15.6142 44.4094 15.5097C44.2004 15.5097 44.2004 15.5097 44.0959 15.5097ZM43.1554 18.3312C42.9464 18.3312 42.7374 18.4357 42.6329 18.7492C42.5284 18.9582 42.5284 19.0627 42.4239 19.2717C42.3194 19.5852 42.2149 19.7943 42.2149 20.1078C42.1104 20.4213 42.3194 20.7348 42.6329 20.8393C42.7374 20.8393 42.7374 20.8393 42.8419 20.8393C43.0509 20.8393 43.2599 20.6303 43.3644 20.4213C43.4689 19.8988 43.6779 19.4808 43.7824 18.9582C43.8869 18.6447 43.6779 18.3312 43.3644 18.2267C43.2599 18.3312 43.2599 18.3312 43.1554 18.3312ZM42.3194 21.1528C42.1104 21.1528 41.7969 21.3618 41.7969 21.5708C41.6924 22.0933 41.4834 22.5113 41.3789 23.0338C41.2744 23.3473 41.4834 23.6608 41.7969 23.7653H41.9014C42.1104 23.7653 42.4239 23.5563 42.4239 23.3473C42.5284 22.8248 42.6329 22.4068 42.8419 21.8843C42.9464 21.5708 42.7374 21.2573 42.4239 21.1528H42.3194ZM41.5879 24.0788C41.3789 24.0788 41.0654 24.2878 41.0654 24.4968C40.9609 24.9148 40.8564 25.2284 40.7519 25.6464C40.7519 25.7509 40.7519 25.7509 40.7519 25.8554C40.6474 26.1689 40.8564 26.4824 41.1699 26.4824H41.2744C41.4834 26.4824 41.7969 26.2734 41.7969 26.0644C41.9014 25.5419 42.0059 25.1239 42.1104 24.6013C42.2149 24.2878 42.0059 23.9743 41.6924 23.9743C41.6924 24.0788 41.5879 24.0788 41.5879 24.0788ZM40.8564 26.9004C40.6474 26.9004 40.3339 27.1094 40.3339 27.3184C40.2294 27.8409 40.1248 28.2589 40.0203 28.7814C39.9158 29.0949 40.1249 29.4084 40.4384 29.4084H40.5429C40.8564 29.4084 41.0654 29.1994 41.0654 28.9904C41.1699 28.4679 41.2744 28.0499 41.3789 27.5274C41.4834 27.2139 41.2744 26.9004 40.9609 26.9004C40.9609 26.9004 40.9609 26.9004 40.8564 26.9004ZM40.3339 29.8264C40.0204 29.8264 39.8113 30.0354 39.8113 30.349C39.8113 30.4535 39.8113 30.4535 39.8113 30.558C39.8113 30.767 39.7068 30.976 39.7068 31.185C39.7068 31.4985 39.9158 31.812 40.2294 31.812C40.2294 31.812 40.2294 31.812 40.3339 31.812C40.6474 31.812 40.8564 31.603 40.8564 31.2895C40.9609 30.767 40.9609 30.349 41.0654 29.8264C40.9609 30.2445 40.7519 29.9309 40.3339 29.8264C40.4384 29.8264 40.4384 29.8264 40.3339 29.8264ZM40.0203 32.857C39.7068 32.857 39.4978 33.066 39.4978 33.3795V33.484C39.4978 33.902 39.3933 34.2155 39.3933 34.6335C39.3933 34.947 39.6023 35.2605 39.9158 35.2605C40.2294 35.2605 40.4384 35.0515 40.4384 34.738C40.4384 34.2155 40.5429 33.7975 40.5429 33.275C40.5429 33.1705 40.3339 32.857 40.0203 32.857ZM39.7068 35.7831C39.3933 35.7831 39.1843 35.9921 39.1843 36.3056C39.1843 36.8281 39.0798 37.3506 39.0798 37.7686C39.0798 38.0821 39.2888 38.2911 39.6023 38.3956C39.9159 38.3956 40.1249 38.1866 40.1249 37.8731C40.1249 37.3506 40.1249 36.9326 40.2294 36.4101C40.3339 35.9921 40.0204 35.7831 39.7068 35.7831ZM39.6023 38.7091C39.2888 38.7091 39.0798 38.9181 39.0798 39.2316C39.0798 39.3361 39.0798 39.3361 39.0798 39.4406C39.0798 39.4406 39.0798 39.4406 39.0798 39.5451C39.0798 39.6496 39.0798 39.6496 39.0798 39.7541C39.0798 39.9631 39.0798 40.1721 39.0798 40.4856C39.0798 40.7991 39.2888 41.0081 39.6023 41.0081C39.9159 41.0081 40.1249 40.6946 40.1249 40.3811C40.1249 39.8586 40.1249 39.4406 40.1249 38.9181C40.1249 38.9181 39.9159 38.7091 39.6023 38.7091ZM39.7068 41.6352C39.3933 41.6352 39.0798 41.9487 39.1843 42.2622C39.1843 42.7847 39.2888 43.2027 39.2888 43.7252C39.2888 44.0387 39.6023 44.2477 39.8113 44.2477C39.8113 44.2477 39.8113 44.2477 39.9158 44.2477C40.2294 44.2477 40.4384 43.9342 40.4384 43.6207C40.4384 43.0982 40.3339 42.6802 40.3339 42.1577C40.2294 41.9487 40.0204 41.6352 39.7068 41.6352ZM40.0203 44.5612C39.9158 44.5612 39.9158 44.5612 40.0203 44.5612C39.6023 44.5612 39.3933 44.8747 39.4978 45.1882C39.6023 45.6062 39.6023 46.0243 39.7068 46.3378C39.7068 46.4423 39.7068 46.4423 39.7068 46.5468C39.7068 46.7558 39.9159 46.9648 40.1249 46.9648L40.0203 48.0098C40.4384 48.0098 40.8564 48.1143 41.1699 48.2188H41.2744H41.3789C41.5879 48.2188 41.9014 48.0098 41.9014 47.8008C42.0059 47.4873 41.7969 47.1738 41.4834 47.1738C41.0654 47.0693 40.6474 46.9648 40.2294 46.9648C40.4384 46.8603 40.6474 46.6513 40.5429 46.3378C40.4384 45.9197 40.4384 45.3972 40.3339 44.8747C40.4384 44.7702 40.2294 44.5612 40.0203 44.5612ZM43.0509 47.9053C42.8419 47.9053 42.6329 48.0098 42.5284 48.2188C42.4239 48.5323 42.5284 48.8458 42.8419 48.9503C43.2599 49.1593 43.5734 49.2638 43.9914 49.5773C44.0959 49.5773 44.0959 49.6818 44.2004 49.6818C44.3049 49.7863 44.4094 49.7863 44.5139 49.7863C44.7229 49.7863 44.8274 49.6818 44.9319 49.5773C45.1409 49.3683 45.0364 48.9503 44.7229 48.8458C44.3049 48.5323 43.7824 48.2188 43.2599 48.0098C43.1554 47.9053 43.0509 47.9053 43.0509 47.9053ZM45.6635 49.5773C45.559 49.5773 45.3499 49.6818 45.2454 49.7863C45.0364 49.9953 45.0364 50.4133 45.2454 50.6223C45.4544 50.8313 45.6635 51.0403 45.768 51.1448L45.8725 51.2493C45.977 51.3538 46.186 51.4583 46.2905 51.4583C46.395 51.4583 46.4995 51.4583 46.604 51.3538C46.813 51.1448 46.9175 50.8313 46.7085 50.6223C46.395 50.2043 45.977 49.6818 45.559 49.3683C45.977 49.6818 45.768 49.5773 45.6635 49.5773ZM47.5445 52.1899C47.44 52.1899 47.44 52.1899 47.3355 52.1899C47.022 52.2944 46.9175 52.6079 47.022 52.9214C47.1265 53.1304 47.231 53.4439 47.3355 53.6529C47.44 53.8619 47.44 54.0709 47.44 54.2799C47.5445 54.4889 47.7535 54.6979 47.9625 54.6979H48.067C48.3805 54.5934 48.5895 54.3844 48.485 54.0709C48.3805 53.5484 48.1715 52.9214 47.9625 52.3989C47.9625 52.2944 47.7535 52.1899 47.5445 52.1899ZM48.1715 55.3249C47.858 55.3249 47.5445 55.6384 47.5445 55.9519C47.5445 56.1609 47.5445 56.4744 47.44 56.6834V56.7879C47.3355 57.1015 47.5445 57.415 47.858 57.415H47.9625C48.1715 57.415 48.485 57.206 48.485 56.9969C48.5895 56.4744 48.694 55.8474 48.694 55.3249C48.7985 55.5339 48.485 55.3249 48.1715 55.3249ZM47.5445 58.46C47.3355 58.46 47.1265 58.5645 47.022 58.7735C46.813 59.1915 46.604 59.505 46.395 59.923C46.395 59.923 46.395 59.923 46.2905 60.0275C46.0815 60.2365 46.186 60.6545 46.395 60.759C46.4995 60.8635 46.604 60.8635 46.7085 60.8635C46.9175 60.8635 47.022 60.759 47.1265 60.6545C47.44 60.132 47.7535 59.714 47.9625 59.1915C48.067 58.878 47.9625 58.5645 47.649 58.46C47.7535 58.46 47.649 58.46 47.5445 58.46ZM45.768 61.0725C45.6635 61.0725 45.4545 61.177 45.35 61.2815C45.2455 61.386 45.1409 61.4905 45.0364 61.4905C44.9319 61.595 44.8274 61.6995 44.7229 61.804C44.6184 61.9085 44.5139 61.9085 44.4094 62.013C44.2004 62.222 44.0959 62.5356 44.3049 62.7446C44.4094 62.9536 44.6184 62.9536 44.7229 62.9536C44.8274 62.9536 44.9319 62.9535 45.0364 62.849C45.559 62.5355 45.977 62.222 46.395 61.804C46.604 61.595 46.604 61.2815 46.395 60.968C45.977 61.177 45.8725 61.0725 45.768 61.0725ZM43.0509 62.849C42.9464 62.849 42.9464 62.849 42.8419 62.849C42.7374 62.9535 42.5284 62.9536 42.4239 63.0581C42.2149 63.1626 41.9014 63.2671 41.5879 63.2671C41.2744 63.3716 41.0654 63.6851 41.1699 63.9986C41.2744 64.2076 41.4834 64.4166 41.6924 64.4166H41.7969C42.3194 64.3121 42.8419 64.1031 43.3644 63.8941C43.6779 63.7896 43.7824 63.4761 43.6779 63.1626C43.4689 62.9536 43.2599 62.849 43.0509 62.849ZM40.0203 63.5806C39.8113 63.5806 39.7068 63.5806 39.4978 63.5806C39.4978 63.5806 39.4978 63.5806 39.3933 63.5806C39.2888 63.5806 39.1843 63.5806 38.9753 63.5806C38.9753 63.5806 38.9753 63.5806 38.8708 63.5806C38.5573 63.5806 38.3483 63.7896 38.3483 64.1031C38.3483 64.4166 38.5573 64.7301 38.8708 64.7301C39.0798 64.7301 39.3933 64.7301 39.6023 64.7301C39.9159 64.7301 40.2294 64.7301 40.5429 64.7301C40.8564 64.7301 41.0654 64.4166 41.0654 64.1031C40.5429 63.8941 40.3339 63.5806 40.0203 63.5806ZM35.3178 62.9536C35.1088 62.9536 34.8998 63.0581 34.7953 63.2671C34.6907 63.5806 34.7953 63.8941 35.1088 63.9986C35.6313 64.2076 36.1538 64.4166 36.6763 64.5211H36.7808C36.9898 64.5211 37.3033 64.3121 37.3033 64.1031C37.4078 63.7896 37.1988 63.4761 36.8853 63.4761C36.7808 63.4761 36.6763 63.3716 36.4673 63.3716C36.3628 63.3716 36.2583 63.2671 36.1538 63.2671C36.0493 63.2671 36.0493 63.1626 35.9448 63.1626C35.5268 62.9536 35.4223 62.9536 35.3178 62.9536ZM32.7052 61.177C32.6007 61.177 32.3917 61.2815 32.2872 61.386C32.0782 61.595 32.0782 62.013 32.2872 62.222C32.7052 62.6401 33.1232 62.9536 33.6457 63.2671C33.7502 63.3716 33.8547 63.3716 33.9592 63.3716C34.1682 63.3716 34.3772 63.2671 34.4817 63.1626C34.6908 62.9536 34.5862 62.5355 34.2727 62.431C34.1682 62.431 34.1682 62.3265 34.0637 62.3265C33.9592 62.222 33.7502 62.1175 33.6457 62.013C33.6457 62.013 33.6457 62.013 33.5412 62.013C33.4367 61.9085 33.3322 61.804 33.2277 61.6995C33.0187 61.2815 32.8097 61.177 32.7052 61.177ZM30.8242 58.669C30.7197 58.669 30.6152 58.669 30.6152 58.7735C30.3017 58.878 30.1972 59.1915 30.3017 59.505C30.5107 60.0275 30.8242 60.55 31.1377 60.968C31.2422 61.0725 31.4512 61.177 31.5557 61.177C31.6602 61.177 31.7647 61.177 31.8692 61.0725C32.0782 60.8635 32.1827 60.55 31.9737 60.341C31.8692 60.2365 31.7647 60.132 31.7647 60.0275C31.5557 59.714 31.4512 59.505 31.2422 59.1915C31.2422 58.7735 31.0332 58.669 30.8242 58.669ZM30.0927 55.5339C29.7792 55.5339 29.5702 55.8474 29.5702 56.0564C29.5702 56.6834 29.6747 57.206 29.7792 57.7285C29.8837 57.9375 30.0927 58.1465 30.3017 58.1465H30.4062C30.7197 58.042 30.9287 57.7285 30.8242 57.5195C30.7197 57.206 30.7197 56.8924 30.7197 56.6834C30.7197 56.6834 30.7197 56.6834 30.7197 56.5789C30.7197 56.5789 30.7197 56.5789 30.7197 56.4744C30.7197 56.3699 30.7197 56.3699 30.7197 56.2654C30.6152 55.7429 30.4062 55.5339 30.0927 55.5339ZM30.6152 52.3989C30.4062 52.3989 30.1972 52.5034 30.0927 52.7124C29.8837 53.2349 29.6747 53.7574 29.5702 54.3844C29.4657 54.6979 29.6747 55.0114 29.9882 55.0114H30.0927C30.4062 55.0114 30.6152 54.8024 30.6152 54.5934C30.6152 54.4889 30.6152 54.4889 30.6152 54.3844C30.7197 54.0709 30.8242 53.7574 30.9287 53.4439C31.0332 53.1304 30.9287 52.8169 30.6152 52.7124C30.8242 52.3989 30.7197 52.3989 30.6152 52.3989ZM32.4962 49.7863C32.3917 49.7863 32.1827 49.8908 32.0782 49.9953C31.6602 50.4133 31.3467 50.8313 31.0332 51.3538C30.8242 51.5628 30.9287 51.9809 31.1377 52.0854C31.2422 52.1899 31.3467 52.1899 31.4512 52.1899C31.6602 52.1899 31.7647 52.0854 31.8692 51.9809C32.1827 51.5628 32.4962 51.1448 32.8097 50.8313C33.0187 50.6223 33.0187 50.3088 32.8097 49.9953C32.7052 49.7863 32.6007 49.7863 32.4962 49.7863ZM35.9448 46.2332C35.6313 46.2332 35.4223 46.4422 35.4223 46.7558C35.4223 47.1738 35.4223 47.5918 35.4223 47.9053C35.3178 47.9053 35.2133 47.8008 35.1088 47.8008C35.0043 47.8008 34.8998 47.8008 34.8998 47.8008C34.3772 48.0098 33.8547 48.3233 33.4367 48.6368C33.2277 48.8458 33.1232 49.1593 33.3322 49.3683C33.4367 49.5773 33.6457 49.5773 33.7502 49.5773C33.8547 49.5773 33.9592 49.5773 34.0637 49.4728C34.3772 49.2638 34.6908 49.0548 35.0043 48.9503C35.1088 48.9503 35.2133 48.8458 35.3178 48.8458C35.4223 48.8458 35.5268 48.7413 35.5268 48.6368L35.6313 48.7413C35.8403 48.6368 36.1538 48.5323 36.3628 48.4278C36.3628 48.3233 36.3628 48.3233 36.3628 48.2188C36.3628 47.6963 36.3628 47.2783 36.3628 46.7558C36.4673 46.5468 36.2583 46.2332 35.9448 46.2332ZM36.0493 43.3072C35.7358 43.3072 35.5268 43.5162 35.5268 43.8297C35.5268 44.3522 35.4223 44.8747 35.4223 45.3972C35.4223 45.7107 35.6313 45.9197 35.9448 46.0242C36.2583 46.0242 36.4673 45.8152 36.4673 45.5017C36.4673 44.9792 36.4673 44.5612 36.5718 44.0387C36.5718 43.5162 36.3628 43.3072 36.0493 43.3072ZM36.2583 40.2766C35.9448 40.2766 35.7358 40.4856 35.7358 40.7991C35.6313 41.3217 35.6313 41.8442 35.6313 42.2622C35.6313 42.5757 35.8403 42.8892 36.1538 42.8892C36.4673 42.8892 36.6763 42.6802 36.6763 42.3667C36.6763 41.8442 36.7808 41.4262 36.7808 40.9036C36.8853 40.5901 36.5718 40.2766 36.2583 40.2766ZM36.5718 37.2461C36.2583 37.2461 36.0493 37.4551 36.0493 37.7686C35.9448 38.2911 35.9448 38.8136 35.8403 39.2316C35.8403 39.5451 36.0493 39.8586 36.3628 39.8586C36.3628 39.8586 36.3628 39.8586 36.4673 39.8586C36.7808 39.8586 36.9898 39.6496 36.9898 39.3361C36.9898 39.2316 36.9898 39.1271 36.9898 38.9181C36.9898 38.7091 37.0943 38.5001 37.0943 38.1866C37.0943 38.0821 37.0943 37.9776 37.0943 37.8731C37.1988 37.5596 36.9898 37.3506 36.5718 37.2461C36.6763 37.2461 36.6763 37.2461 36.5718 37.2461ZM37.0943 34.32C36.7808 34.32 36.5718 34.529 36.5718 34.738C36.4673 35.2605 36.3628 35.783 36.3628 36.2011C36.3628 36.5146 36.5718 36.8281 36.7808 36.8281H36.8853C37.1988 36.8281 37.4078 36.6191 37.4078 36.3056C37.5123 35.7831 37.6168 35.3651 37.6168 34.8425C37.7213 34.6335 37.5123 34.32 37.0943 34.32ZM37.6168 31.2895C37.4078 31.2895 37.0943 31.4985 37.0943 31.7075C36.9898 32.23 36.8853 32.7525 36.7808 33.1705C36.6763 33.484 36.8853 33.7975 37.1988 33.7975H37.3033C37.6168 33.7975 37.8258 33.5885 37.8258 33.3795V33.275C37.9303 32.857 37.9303 32.5435 38.0348 32.1255C38.1393 31.812 37.9303 31.4985 37.6168 31.4985C37.7213 31.2895 37.7213 31.2895 37.6168 31.2895ZM38.3483 28.3634C38.1393 28.3634 37.8258 28.5724 37.8258 28.7814C37.7213 29.3039 37.6168 29.7219 37.5123 30.2444C37.4078 30.558 37.6168 30.8715 37.9303 30.8715H38.0348C38.2438 30.8715 38.5573 30.6625 38.5573 30.4535C38.5573 30.2445 38.6618 30.1399 38.6618 29.9309C38.6618 29.7219 38.7663 29.5129 38.7663 29.3039V29.1994C38.8708 28.8859 38.6618 28.5724 38.3483 28.5724C38.3483 28.3634 38.3483 28.3634 38.3483 28.3634ZM39.0798 25.4374C38.8708 25.4374 38.5573 25.6464 38.5573 25.8554C38.4528 26.3779 38.3483 26.7959 38.1393 27.3184C38.0348 27.6319 38.2438 27.9454 38.5573 28.0499H38.6618C38.8708 28.0499 39.1843 27.8409 39.1843 27.6319C39.2888 27.1094 39.3933 26.6914 39.6023 26.1689C39.7068 25.8554 39.4978 25.5419 39.1843 25.4374C39.1843 25.5419 39.0798 25.4374 39.0798 25.4374ZM39.9158 22.6158C39.7068 22.6158 39.4978 22.7203 39.3933 23.0338C39.2888 23.5563 39.0798 23.9743 38.9753 24.4968C38.8708 24.8103 39.0798 25.1239 39.3933 25.2284C39.4978 25.2284 39.4978 25.2284 39.4978 25.2284C39.7068 25.2284 39.9158 25.0194 40.0203 24.8103C40.0203 24.7058 40.1249 24.6013 40.1249 24.4968C40.2294 24.1833 40.3339 23.8698 40.4384 23.5563C40.5429 23.2428 40.3339 22.9293 40.0203 22.8248C40.0203 22.6158 39.9158 22.6158 39.9158 22.6158ZM40.8564 19.6898C40.6474 19.6898 40.4384 19.7943 40.3339 20.1078C40.1249 20.6303 40.0204 21.0483 39.8113 21.5708C39.7068 21.8843 39.9159 22.1978 40.1249 22.3023C40.2294 22.3023 40.2294 22.3023 40.3339 22.3023C40.5429 22.3023 40.7519 22.1978 40.8564 21.8843C40.9609 21.4663 41.0654 21.1528 41.2744 20.7348C41.2744 20.6303 41.2744 20.6303 41.3789 20.5258C41.4834 20.2123 41.2744 19.8988 41.0654 19.7943C40.9609 19.6898 40.8564 19.6898 40.8564 19.6898ZM41.7969 16.8682C41.5879 16.8682 41.3789 16.9727 41.2744 17.1817C41.0654 17.7042 40.9609 18.1222 40.7519 18.6447C40.6474 18.9582 40.7519 19.2717 41.0654 19.3763C41.1699 19.3763 41.1699 19.3763 41.2744 19.3763C41.4834 19.3763 41.6924 19.2717 41.7969 18.9582C41.7969 18.8537 41.9014 18.7492 41.9014 18.7492C42.0059 18.5402 42.0059 18.3312 42.1104 18.1222C42.2149 17.8087 42.1104 17.4952 41.7969 17.3907C42.0059 16.8682 41.9014 16.8682 41.7969 16.8682ZM42.9464 14.0466C42.7374 14.0466 42.5284 14.1512 42.4239 14.3602C42.2149 14.7782 42.0059 15.3007 41.9014 15.7187C41.7969 16.0322 41.9014 16.3457 42.2149 16.4502C42.3194 16.4502 42.3194 16.4502 42.4239 16.4502C42.6329 16.4502 42.8419 16.3457 42.9464 16.1367C42.9464 16.0322 43.0509 15.9277 43.0509 15.8232C43.1554 15.6142 43.2599 15.3007 43.3644 15.0917C43.4689 14.7782 43.3644 14.4647 43.0509 14.3602C43.0509 14.1512 43.0509 14.0466 42.9464 14.0466ZM44.0959 11.3296C43.8869 11.3296 43.6779 11.4341 43.5734 11.6431C43.3644 12.0611 43.1554 12.5836 42.9464 13.0016C42.8419 13.3151 42.9464 13.6286 43.2599 13.7331C43.3644 13.7331 43.3644 13.7331 43.4689 13.7331C43.6779 13.7331 43.8869 13.6286 43.9914 13.4196C43.9914 13.4196 43.9914 13.4196 43.9914 13.3151C44.0959 13.2106 44.0959 13.1061 44.2004 13.0016C44.3049 12.7926 44.4094 12.5836 44.5139 12.3746C44.6184 12.0611 44.5139 11.7476 44.2004 11.6431C44.3049 11.3296 44.2004 11.3296 44.0959 11.3296ZM45.4545 8.61255C45.2455 8.61255 45.0364 8.71705 44.9319 8.92606C44.7229 9.34407 44.5139 9.86657 44.3049 10.2846C44.2004 10.5981 44.3049 10.9116 44.6184 11.0161C44.7229 11.0161 44.8274 11.1206 44.8274 11.1206C45.0364 11.1206 45.2455 11.0161 45.35 10.8071C45.35 10.8071 45.35 10.8071 45.35 10.7026C45.4545 10.4936 45.559 10.2846 45.6635 10.0756C45.768 9.76207 45.6635 9.44856 45.4545 9.34406C45.559 8.61255 45.559 8.61255 45.4545 8.61255ZM46.813 6C46.604 6 46.395 6.10451 46.2905 6.31351C46.0815 6.73152 45.768 7.14952 45.559 7.67203C45.4545 7.98554 45.559 8.29905 45.768 8.40355C45.8725 8.40355 45.977 8.50805 45.977 8.50805C46.186 8.50805 46.395 8.40354 46.4995 8.19454C46.604 8.09004 46.7085 7.88103 46.7085 7.77653C46.813 7.46302 47.022 7.14952 47.1265 6.94052C47.1265 6.94052 46.9175 7.25403 46.7085 7.88104C46.604 8.09004 46.4995 8.29904 46.395 8.61255C46.2905 8.71705 46.2905 8.92606 46.186 9.03056C46.0815 9.34406 46.186 9.65757 46.4995 9.76207C46.604 9.76207 46.604 9.76207 46.7085 9.76207C46.9175 9.76207 47.1265 9.65757 47.231 9.44857C47.44 8.92606 47.649 8.40354 47.858 8.09004C47.9625 7.88103 47.9625 7.67203 47.7535 7.46303V7.35853C47.7535 7.04502 47.5445 6.83602 47.231 6.83602C47.3355 6.52251 47.231 6.209 47.022 6.1045C47.022 6 46.9175 6 46.813 6Z" fill="#2FB56A"/>
<path id="Vector_3" d="M30.4068 42.2627H14.7315C14.3135 42.2627 14 42.5762 14 42.9942C14 43.4122 14.3135 43.7257 14.7315 43.7257H30.9293L30.4068 42.2627Z" fill="#2FB56A"/>
<path id="Vector_4" d="M63.5347 42.2627H47.9639L47.4414 43.7257H63.5347C63.9527 43.7257 64.2662 43.4122 64.2662 42.9942C64.2662 42.6807 63.9527 42.2627 63.5347 42.2627Z" fill="#2FB56A"/>
</g>
</g>
</svg>
