<svg width="57" height="36" viewBox="0 0 57 36" fill="none" xmlns="http://www.w3.org/2000/svg">
<rect width="57" height="36" rx="8" fill="#31AB5C"/>
<g clip-path="url(#clip0_5308_14581)">
<path d="M41 9H21.242L21.2 8.649C21.114 7.91942 20.7634 7.24673 20.2145 6.75848C19.6656 6.27022 18.9566 6.00034 18.222 6H17V8H18.222C18.4669 8.00003 18.7033 8.08996 18.8864 8.25272C19.0694 8.41547 19.1863 8.63975 19.215 8.883L20.8 22.351C20.886 23.0806 21.2366 23.7533 21.7855 24.2415C22.3344 24.7298 23.0434 24.9997 23.778 25H37V23H23.778C23.5329 22.9999 23.2964 22.9099 23.1133 22.7469C22.9303 22.5839 22.8134 22.3594 22.785 22.116L22.654 21H38.836L41 9ZM37.164 19H22.419L21.478 11H38.607L37.164 19Z" fill="#FAF7F5"/>
<path d="M24 30.0006C25.1046 30.0006 26 29.1052 26 28.0006C26 26.896 25.1046 26.0006 24 26.0006C22.8954 26.0006 22 26.896 22 28.0006C22 29.1052 22.8954 30.0006 24 30.0006Z" fill="#FAF7F5"/>
<path d="M34 30.0006C35.1046 30.0006 36 29.1052 36 28.0006C36 26.896 35.1046 26.0006 34 26.0006C32.8954 26.0006 32 26.896 32 28.0006C32 29.1052 32.8954 30.0006 34 30.0006Z" fill="#FAF7F5"/>
</g>
<defs>
<clipPath id="clip0_5308_14581">
<rect width="24" height="24" fill="white" transform="translate(17 6)"/>
</clipPath>
</defs>
</svg>
