<svg width="282" height="256" viewBox="0 0 282 256" fill="none" xmlns="http://www.w3.org/2000/svg">
<g clip-path="url(#clip0_6849_18950)">
<path d="M77.7311 6.13361H54.9609V27.0316L77.7311 6.13361Z" fill="#FAF7F5"/>
<path d="M-10.8516 41.7959L35.1893 0H-10.8516V41.7959Z" fill="#FAF7F5"/>
<path d="M136.786 6.13361H113.766V27.0316L136.786 6.13361Z" fill="#FAF7F5"/>
<path d="M195.841 6.13361H172.82V27.0316L195.841 6.13361Z" fill="#FAF7F5"/>
<path d="M254.888 6.13361H231.867V27.0316L254.888 6.13361Z" fill="#FAF7F5"/>
<path d="M48.2031 95.4037L94.2439 53.6078H48.2031V95.4037Z" fill="#FAF7F5"/>
<path d="M-10.8516 95.4037L35.1893 53.6078H-10.8516V95.4037Z" fill="#FAF7F5"/>
<path d="M107.008 95.4037L153.049 53.6078H107.008V95.4037Z" fill="#FAF7F5"/>
<path d="M195.841 59.7414H172.82V80.4122L195.841 59.7414Z" fill="#FAF7F5"/>
<path d="M225.117 95.4037L271.158 53.6078H225.117V95.4037Z" fill="#FAF7F5"/>
<path d="M48.2031 148.784L94.2439 106.989H48.2031V148.784Z" fill="#FAF7F5"/>
<path d="M-10.8516 148.784L35.1893 106.989H-10.8516V148.784Z" fill="#FAF7F5"/>
<path d="M136.786 113.122H113.766V134.02L136.786 113.122Z" fill="#FAF7F5"/>
<path d="M166.062 148.784L212.103 106.989H166.062V148.784Z" fill="#FAF7F5"/>
<path d="M225.117 148.784L271.158 106.989H225.117V148.784Z" fill="#FAF7F5"/>
<path d="M77.7311 166.73H54.9609V187.628L77.7311 166.73Z" fill="#FAF7F5"/>
<path d="M-10.8516 202.392L35.1893 160.596H-10.8516V202.392Z" fill="#FAF7F5"/>
<path d="M107.008 202.392L153.049 160.596H107.008V202.392Z" fill="#FAF7F5"/>
<path d="M166.062 202.392L212.103 160.596H166.062V202.392Z" fill="#FAF7F5"/>
<path d="M225.117 202.392L271.158 160.596H225.117V202.392Z" fill="#FAF7F5"/>
<path d="M77.7311 220.338H54.9609V241.236L77.7311 220.338Z" fill="#FAF7F5"/>
<path d="M18.9345 220.338H-4.08594V241.236L18.9345 220.338Z" fill="#FAF7F5"/>
<path d="M136.786 220.338H113.766V241.236L136.786 220.338Z" fill="#FAF7F5"/>
<path d="M195.841 220.338H172.82V241.236L195.841 220.338Z" fill="#FAF7F5"/>
<path d="M225.117 256L271.158 214.204H225.117V256Z" fill="#FAF7F5"/>
</g>
<defs>
<clipPath id="clip0_6849_18950">
<rect width="282" height="256" fill="white"/>
</clipPath>
</defs>
</svg>
