<svg width="25" height="24" viewBox="0 0 25 24" fill="none" xmlns="http://www.w3.org/2000/svg">
<g id="Group 48095571">
<path id="Vector" d="M22.7705 8.06062H0.318879C0.227797 8.06062 0.136719 7.96954 0.136719 7.87846C0.136719 7.78737 0.227797 7.69629 0.318879 7.69629H22.7705C22.8616 7.69629 22.9526 7.78737 22.9526 7.87846C22.9526 7.96954 22.8616 8.06062 22.7705 8.06062Z" fill="#2FB56A"/>
<path id="Vector_2" d="M6.46723 4.64516C6.28507 4.64516 6.14844 4.50854 6.14844 4.32637V0.318784C6.14844 0.136621 6.28507 0 6.46723 0C6.64939 0 6.78601 0.136621 6.78601 0.318784V4.32637C6.83155 4.50854 6.64939 4.64516 6.46723 4.64516Z" fill="#2FB56A"/>
<path id="Vector_3" d="M16.5766 4.64516C16.3944 4.64516 16.2578 4.50854 16.2578 4.32637V0.318784C16.2578 0.136621 16.3944 0 16.5766 0C16.7588 0 16.8954 0.136621 16.8954 0.318784V4.32637C16.9409 4.50854 16.7588 4.64516 16.5766 4.64516Z" fill="#2FB56A"/>
<path id="Vector_4" d="M12.0234 10.6113C12.0234 10.8845 11.7957 11.1122 11.5224 11.1122C11.2492 11.1122 11.0215 10.8845 11.0215 10.6113C11.0215 10.3381 11.2492 10.1104 11.5224 10.1104C11.7957 10.1559 12.0234 10.3381 12.0234 10.6113Z" fill="#2FB56A"/>
<path id="Vector_5" d="M15.9394 10.6113C15.9394 10.8845 15.7117 11.1122 15.4384 11.1122C15.1652 11.1122 14.9375 10.8845 14.9375 10.6113C14.9375 10.3381 15.1652 10.1104 15.4384 10.1104C15.7572 10.1559 15.9394 10.3381 15.9394 10.6113Z" fill="#2FB56A"/>
<path id="Vector_6" d="M19.9023 10.6113C19.9023 10.8845 19.6746 11.1122 19.4013 11.1122C19.1281 11.1122 18.9004 10.8845 18.9004 10.6113C18.9004 10.3381 19.1281 10.1104 19.4013 10.1104C19.6746 10.1559 19.9023 10.3381 19.9023 10.6113Z" fill="#2FB56A"/>
<path id="Vector_7" d="M8.10737 10.6113C8.10737 10.8845 7.87966 11.1122 7.60642 11.1122C7.33318 11.1122 7.10547 10.8845 7.10547 10.6113C7.10547 10.3381 7.33318 10.1104 7.60642 10.1104C7.87966 10.1559 8.10737 10.3381 8.10737 10.6113Z" fill="#2FB56A"/>
<path id="Vector_8" d="M4.14448 13.8447C4.14448 14.1179 3.91677 14.3456 3.64353 14.3456C3.37028 14.3456 3.14258 14.1179 3.14258 13.8447C3.14258 13.5714 3.37028 13.3438 3.64353 13.3438C3.91677 13.3438 4.14448 13.5714 4.14448 13.8447Z" fill="#2FB56A"/>
<path id="Vector_9" d="M8.10737 13.8447C8.10737 14.1179 7.87966 14.3456 7.60642 14.3456C7.33318 14.3456 7.10547 14.1179 7.10547 13.8447C7.10547 13.5714 7.33318 13.3438 7.60642 13.3438C7.87966 13.3438 8.10737 13.5714 8.10737 13.8447Z" fill="#2FB56A"/>
<path id="Vector_10" d="M12.0234 13.8447C12.0234 14.1179 11.7957 14.3456 11.5224 14.3456C11.2492 14.3456 11.0215 14.1179 11.0215 13.8447C11.0215 13.5714 11.2492 13.3438 11.5224 13.3438C11.7957 13.3438 12.0234 13.5714 12.0234 13.8447Z" fill="#2FB56A"/>
<path id="Vector_11" d="M15.9394 13.8447C15.9394 14.1179 15.7117 14.3456 15.4384 14.3456C15.1652 14.3456 14.9375 14.1179 14.9375 13.8447C14.9375 13.5714 15.1652 13.3438 15.4384 13.3438C15.7572 13.3438 15.9394 13.5714 15.9394 13.8447Z" fill="#2FB56A"/>
<path id="Vector_12" d="M19.9023 13.8447C19.9023 14.1179 19.6746 14.3456 19.4013 14.3456C19.1281 14.3456 18.9004 14.1179 18.9004 13.8447C18.9004 13.5714 19.1281 13.3438 19.4013 13.3438C19.6746 13.3438 19.9023 13.5714 19.9023 13.8447Z" fill="#2FB56A"/>
<path id="Vector_13" d="M4.14448 17.0781C4.14448 17.3513 3.91677 17.5791 3.64353 17.5791C3.37028 17.5791 3.14258 17.3513 3.14258 17.0781C3.14258 16.8049 3.37028 16.5771 3.64353 16.5771C3.91677 16.5771 4.14448 16.8049 4.14448 17.0781Z" fill="#2FB56A"/>
<path id="Vector_14" d="M8.10737 17.0781C8.10737 17.3513 7.87966 17.5791 7.60642 17.5791C7.33318 17.5791 7.10547 17.3513 7.10547 17.0781C7.10547 16.8049 7.33318 16.5771 7.60642 16.5771C7.87966 16.5771 8.10737 16.8049 8.10737 17.0781Z" fill="#2FB56A"/>
<path id="Vector_15" d="M12.0234 17.0781C12.0234 17.3513 11.7957 17.5791 11.5224 17.5791C11.2492 17.5791 11.0215 17.3513 11.0215 17.0781C11.0215 16.8049 11.2492 16.5771 11.5224 16.5771C11.7957 16.5771 12.0234 16.8049 12.0234 17.0781Z" fill="#2FB56A"/>
<path id="Vector_16" d="M16.759 20.949H0.637568V2.7782H22.4516V16.486C22.6793 16.6226 22.907 16.8048 23.0892 16.9869V2.14062H0V21.5865H17.0322C16.9412 21.4044 16.8501 21.1767 16.759 20.949Z" fill="#2FB56A"/>
<path id="Vector_17" d="M20.4476 16.2577C18.4893 16.2577 16.8954 17.8516 16.8954 19.8099C16.8954 21.7681 18.4893 23.362 20.4476 23.362C22.4058 23.362 23.9997 21.7681 23.9997 19.8099C23.9997 17.8516 22.4058 16.2577 20.4476 16.2577ZM20.4476 23.9996C18.125 23.9996 16.2578 22.1324 16.2578 19.8099C16.2578 17.4873 18.125 15.6201 20.4476 15.6201C22.7701 15.6201 24.6373 17.4873 24.6373 19.8099C24.6829 22.1324 22.7701 23.9996 20.4476 23.9996Z" fill="#2FB56A"/>
<path id="Vector_18" d="M20.2653 21.3132C20.1743 21.3132 20.1287 21.2676 20.0376 21.2221L18.5348 19.9014C18.3982 19.7648 18.3982 19.5826 18.4893 19.446C18.6259 19.3094 18.808 19.3094 18.9447 19.4004L20.1743 20.4934L21.8593 18.3985C21.9504 18.2619 22.1781 18.2164 22.3147 18.353C22.4513 18.4441 22.4968 18.6718 22.3602 18.8084L20.493 21.1765C20.4475 21.2676 20.402 21.3132 20.2653 21.3132Z" fill="#2FB56A"/>
</g>
</svg>
