<svg width="21" height="24" viewBox="0 0 21 24" fill="none" xmlns="http://www.w3.org/2000/svg">
<g id="Group 48095572">
<g id="Group 48095464">
<path id="Vector" d="M18.0506 20.3196L17.3767 20.2678C15.6143 22.1339 13.1262 23.3261 10.3789 23.3261C5.09163 23.3261 0.737433 19.0237 0.737433 13.6846C0.737433 8.39736 5.03979 4.04316 10.3789 4.04316C15.6661 4.04316 20.0203 8.34553 20.0203 13.6846C20.0203 15.3434 19.6057 16.9503 18.8281 18.298C19.0873 18.4535 19.3983 18.609 19.4501 18.6609C20.2795 17.1576 20.746 15.447 20.746 13.6328C20.746 7.93085 16.0808 3.26562 10.3789 3.26562C4.67694 3.26562 0.0117188 7.93085 0.0117188 13.6328C0.0117188 19.3347 4.67694 23.9999 10.3789 23.9999C13.4372 23.9999 16.1845 22.6522 18.0506 20.5788V20.3196Z" fill="#2FB56A"/>
<path id="Vector_2" d="M17.5873 23.2748C17.4836 23.223 17.4318 23.1193 17.4318 22.9638L17.691 20.4239L15.0992 20.5794C14.9437 20.5794 14.7882 20.4757 14.7363 20.2684C14.7363 20.1129 14.84 19.9573 15.0473 19.9055L18.002 19.75C18.1056 19.75 18.2093 19.8018 18.2612 19.8537C18.313 19.9055 18.3648 20.0092 18.3648 20.1128L18.0538 23.0156C18.0538 23.1712 17.8983 23.3267 17.691 23.3267C17.691 23.3267 17.6391 23.3267 17.5873 23.2748Z" fill="#2FB56A"/>
<path id="Vector_3" d="M0.37581 6.3235C0.272138 6.3235 0.168466 6.27166 0.116631 6.21983C-0.0388769 6.06432 -0.0388769 5.85698 0.116631 5.70147L1.98272 3.83538C2.13823 3.67987 2.34557 3.67987 2.50108 3.83538C2.65659 3.99089 2.65659 4.19823 2.50108 4.35374L0.634989 6.21983C0.583153 6.27166 0.479481 6.3235 0.37581 6.3235Z" fill="#2FB56A"/>
<path id="Vector_4" d="M2.91632 6.94615C2.81264 6.94615 2.70897 6.89432 2.65714 6.84248L1.05022 5.23557C0.894717 5.08007 0.894717 4.87272 1.05022 4.71722C1.20573 4.56171 1.41307 4.56171 1.56858 4.71722L3.1755 6.32413C3.331 6.47963 3.331 6.68698 3.1755 6.84248C3.12366 6.89432 3.01999 6.94615 2.91632 6.94615Z" fill="#2FB56A"/>
<path id="Vector_5" d="M12.4529 0.725702H7.7359C7.52856 0.725702 7.37305 0.570192 7.37305 0.362849C7.37305 0.155506 7.52856 0 7.7359 0H12.4529C12.6603 0 12.8158 0.155506 12.8158 0.362849C12.8158 0.570192 12.6603 0.725702 12.4529 0.725702Z" fill="#2FB56A"/>
<path id="Vector_6" d="M10.1207 3.93952C9.91331 3.93952 9.75781 3.78401 9.75781 3.57667V0.362849C9.75781 0.155506 9.91331 0 10.1207 0C10.328 0 10.4835 0.155506 10.4835 0.362849V3.57667C10.4835 3.78401 10.328 3.93952 10.1207 3.93952Z" fill="#2FB56A"/>
<path id="Vector_7" d="M15.4073 15.5512H10.0682C9.75723 15.5512 9.49805 15.292 9.49805 14.981V8.8125H10.5866V14.4626H15.4073V15.5512Z" fill="#2FB56A"/>
</g>
</g>
</svg>
