<svg xmlns="http://www.w3.org/2000/svg" width="195" height="195" viewBox="0 0 195 195" fill="none">
  <g clip-path="url(#clip0_1996_13096)">
    <path d="M53.7493 4.67175H38.0039V20.5901L53.7493 4.67175Z" fill="rgba(49, 171, 92, 0.2)"/>
    <path d="M-7.5 31.8367L24.3367 0H-7.5V31.8367Z" fill="rgba(49, 171, 92, 0.2)"/>
    <path d="M94.5863 4.67175H78.668V20.5901L94.5863 4.67175Z" fill="rgba(49, 171, 92, 0.2)"/>
    <path d="M135.418 4.67175H119.5V20.5901L135.418 4.67175Z" fill="rgba(49, 171, 92, 0.2)"/>
    <path d="M176.254 4.67175H160.336V20.5901L176.254 4.67175Z" fill="rgba(49, 171, 92, 0.2)"/>
    <path d="M33.3359 72.6708L65.1727 40.8341H33.3359V72.6708Z" fill="rgba(49, 171, 92, 0.2)"/>
    <path d="M-7.5 72.6708L24.3367 40.8341H-7.5V72.6708Z" fill="rgba(49, 171, 92, 0.2)"/>
    <path d="M73.9961 72.6708L105.833 40.8341H73.9961V72.6708Z" fill="rgba(49, 171, 92, 0.2)"/>
    <path d="M135.418 45.5057H119.5V61.2511L135.418 45.5057Z" fill="rgba(49, 171, 92, 0.2)"/>
    <path d="M155.664 72.6708L187.501 40.8341H155.664V72.6708Z" fill="rgba(49, 171, 92, 0.2)"/>
    <path d="M33.3359 113.332L65.1727 81.4951H33.3359V113.332Z" fill="rgba(49, 171, 92, 0.2)"/>
    <path d="M-7.5 113.332L24.3367 81.4951H-7.5V113.332Z" fill="rgba(49, 171, 92, 0.2)"/>
    <path d="M94.5863 86.1669H78.668V102.085L94.5863 86.1669Z" fill="rgba(49, 171, 92, 0.2)"/>
    <path d="M114.832 113.332L146.669 81.4951H114.832V113.332Z" fill="rgba(49, 171, 92, 0.2)"/>
    <path d="M155.664 113.332L187.501 81.4951H155.664V113.332Z" fill="rgba(49, 171, 92, 0.2)"/>
    <path d="M53.7493 127.001H38.0039V142.919L53.7493 127.001Z" fill="rgba(49, 171, 92, 0.2)"/>
    <path d="M-7.5 154.166L24.3367 122.329H-7.5V154.166Z" fill="rgba(49, 171, 92, 0.2)"/>
    <path d="M73.9961 154.166L105.833 122.329H73.9961V154.166Z" fill="rgba(49, 171, 92, 0.2)"/>
    <path d="M114.832 154.166L146.669 122.329H114.832V154.166Z" fill="rgba(49, 171, 92, 0.2)"/>
    <path d="M155.664 154.166L187.501 122.329H155.664V154.166Z" fill="rgba(49, 171, 92, 0.2)"/>
    <path d="M53.7493 167.835H38.0039V183.753L53.7493 167.835Z" fill="rgba(49, 171, 92, 0.2)"/>
    <path d="M13.0902 167.835H-2.82812V183.753L13.0902 167.835Z" fill="rgba(49, 171, 92, 0.2)"/>
    <path d="M94.5863 167.835H78.668V183.753L94.5863 167.835Z" fill="rgba(49, 171, 92, 0.2)"/>
    <path d="M135.418 167.835H119.5V183.753L135.418 167.835Z" fill="rgba(49, 171, 92, 0.2)"/>
    <path d="M155.664 195L187.501 163.163H155.664V195Z" fill="rgba(49, 171, 92, 0.2)"/>
  </g>
  <defs>
    <clipPath id="clip0_1996_13096">
      <rect width="195" height="195" fill="white"/>
    </clipPath>
  </defs>
</svg>