<svg width="36" height="36" viewBox="0 0 36 36" fill="none" xmlns="http://www.w3.org/2000/svg">
<g id="Frame 48096108">
<g id="Group 695">
<g id="Group">
<path id="WhatsApp" d="M28.0161 22.4274C27.8853 22.2133 27.5399 22.0839 27.0214 21.8266C26.502 21.5693 23.9501 20.3231 23.4758 20.152C23 19.9805 22.6531 19.8942 22.3076 20.4093C21.9622 20.9249 20.9675 22.0839 20.6642 22.4274C20.3614 22.772 20.059 22.8151 19.5396 22.5573C19.0212 22.3 17.3495 21.7557 15.3673 20.002C13.8249 18.6374 12.7832 16.9528 12.4804 16.4367C12.1781 15.9217 12.4488 15.6433 12.708 15.3869C12.9418 15.156 13.2274 14.7856 13.4866 14.4852C13.7468 14.1843 13.833 13.9701 14.0051 13.6261C14.179 13.2825 14.0923 12.9821 13.9619 12.7239C13.8326 12.4666 12.7938 9.93286 12.3616 8.90174C11.9294 7.87159 11.4977 8.04312 11.1944 8.04312C10.8921 8.04312 10.5457 8 10.1997 8C9.85377 8 9.29126 8.12889 8.81547 8.64397C8.34016 9.15952 7 10.4053 7 12.9385C7 15.4722 8.85859 17.9202 9.11877 18.2632C9.37798 18.6063 12.7075 23.9746 17.9829 26.0363C23.2587 28.0971 23.2587 27.4096 24.2103 27.3233C25.1609 27.2376 27.2797 26.078 27.7138 24.8763C28.145 23.6727 28.145 22.6421 28.0161 22.4274Z" fill="#31AB5C"/>
</g>
</g>
</g>
</svg>
